<svg xmlns="http://www.w3.org/2000/svg" width="53" height="15" viewBox="0 0 53 15">
    <path fill="#FFF" fill-rule="evenodd" d="M2.674.43v11.645h3.99V14H.626V.43h2.048zm4.702 6.723c0-1.91.7-3.55 2.1-4.922C10.872.861 12.547.175 14.505.175c1.934 0 3.592.691 4.975 2.074 1.388 1.383 2.083 3.044 2.083 4.983 0 1.952-.698 3.607-2.092 4.966-1.4 1.365-3.091 2.048-5.072 2.048-1.752 0-3.325-.606-4.72-1.82-1.534-1.341-2.302-3.099-2.302-5.273zm2.065.027c0 1.5.504 2.733 1.512 3.7 1.002.967 2.16 1.45 3.472 1.45 1.424 0 2.625-.492 3.603-1.476.979-.997 1.468-2.21 1.468-3.64 0-1.446-.483-2.66-1.45-3.638-.961-.984-2.15-1.476-3.568-1.476-1.413 0-2.605.492-3.578 1.476-.972.973-1.459 2.174-1.459 3.604zm21.674-.246h5.608v.448c0 1.02-.12 1.922-.36 2.707-.235.726-.63 1.406-1.187 2.039-1.26 1.418-2.863 2.127-4.808 2.127-1.898 0-3.524-.686-4.878-2.057-1.353-1.377-2.03-3.029-2.03-4.957 0-1.969.688-3.638 2.065-5.01C26.902.854 28.578.166 30.553.166c1.06 0 2.05.217 2.97.65.88.434 1.744 1.137 2.593 2.11l-1.459 1.397c-1.113-1.482-2.47-2.223-4.07-2.223-1.435 0-2.639.495-3.611 1.485-.973.973-1.46 2.191-1.46 3.656 0 1.512.543 2.757 1.627 3.736 1.013.908 2.112 1.362 3.295 1.362 1.008 0 1.914-.34 2.716-1.02.803-.685 1.251-1.506 1.345-2.46h-3.384V6.933zm7.506.22c0-1.91.7-3.551 2.1-4.923C42.117.861 43.793.175 45.75.175c1.934 0 3.592.691 4.975 2.074 1.388 1.383 2.083 3.044 2.083 4.983 0 1.952-.698 3.607-2.092 4.966-1.4 1.365-3.091 2.048-5.071 2.048-1.752 0-3.326-.606-4.72-1.82-1.535-1.341-2.303-3.099-2.303-5.273zm2.066.026c0 1.5.503 2.733 1.511 3.7 1.002.967 2.16 1.45 3.472 1.45 1.424 0 2.625-.492 3.603-1.476.979-.997 1.468-2.21 1.468-3.64 0-1.446-.483-2.66-1.45-3.638-.96-.984-2.15-1.476-3.568-1.476-1.412 0-2.605.492-3.577 1.476-.973.973-1.46 2.174-1.46 3.604z"/>
</svg>
